<svg width="30" height="30" viewBox="0 0 30 30" fill="none" xmlns="http://www.w3.org/2000/svg">
<path d="M11.1083 26.6667C12.1439 26.6667 12.9833 25.8272 12.9833 24.7917C12.9833 23.7561 12.1439 22.9167 11.1083 22.9167C10.0728 22.9167 9.23334 23.7561 9.23334 24.7917C9.23334 25.8272 10.0728 26.6667 11.1083 26.6667Z" fill="#E5E5E5"/>
<path d="M22.5 26.6667C23.5355 26.6667 24.375 25.8272 24.375 24.7917C24.375 23.7561 23.5355 22.9167 22.5 22.9167C21.4645 22.9167 20.625 23.7561 20.625 24.7917C20.625 25.8272 21.4645 26.6667 22.5 26.6667Z" fill="#E5E5E5"/>
<path d="M18.8083 5.83332C18.7704 5.55715 18.7509 5.27876 18.75 4.99999C18.7509 4.72122 18.7704 4.44283 18.8083 4.16666H9.57501L10.1167 5.83332H18.8083Z" fill="#E5E5E5"/>
<path d="M25 11.25H24.65L23.6083 15.8333H11.1083L7.3 3.77501C7.25881 3.64706 7.18727 3.53097 7.0915 3.43665C6.99573 3.34233 6.87857 3.27258 6.75 3.23334L3.33333 2.18334C3.22828 2.15106 3.11789 2.13978 3.00847 2.15016C2.89906 2.16054 2.79276 2.19237 2.69565 2.24383C2.49951 2.34775 2.3527 2.52534 2.2875 2.73751C2.2223 2.94968 2.24406 3.17907 2.34798 3.3752C2.45191 3.57133 2.62949 3.71814 2.84167 3.78334L5.83333 4.70001L9.65833 16.7833L8.29167 17.9L8.18333 18.0083C7.84528 18.3979 7.65367 18.8932 7.6415 19.4088C7.62933 19.9245 7.79737 20.4283 8.11667 20.8333C8.3438 21.1096 8.63242 21.3288 8.95945 21.4735C9.28648 21.6182 9.64283 21.6844 10 21.6667H23.9083C24.1293 21.6667 24.3413 21.5789 24.4976 21.4226C24.6539 21.2663 24.7417 21.0544 24.7417 20.8333C24.7417 20.6123 24.6539 20.4004 24.4976 20.2441C24.3413 20.0878 24.1293 20 23.9083 20H9.86667C9.77071 19.9967 9.67721 19.9688 9.59522 19.9188C9.51322 19.8688 9.44549 19.7986 9.39858 19.7148C9.35166 19.631 9.32715 19.5366 9.3274 19.4406C9.32765 19.3445 9.35265 19.2502 9.4 19.1667L11.4083 17.5H24.275C24.4676 17.5047 24.6559 17.4425 24.8079 17.324C24.9598 17.2055 25.066 17.038 25.1083 16.85L26.4167 11.0917C25.952 11.1982 25.4767 11.2514 25 11.25Z" fill="#E5E5E5"/>
<path d="M25 9.16665C27.3012 9.16665 29.1667 7.30117 29.1667 4.99998C29.1667 2.69879 27.3012 0.833313 25 0.833313C22.6988 0.833313 20.8333 2.69879 20.8333 4.99998C20.8333 7.30117 22.6988 9.16665 25 9.16665Z" fill="#F14545"/>
</svg>
