<svg width="40" height="40" viewBox="0 0 40 40" fill="none" xmlns="http://www.w3.org/2000/svg">
<path d="M40 6.25C40 2.79822 37.2018 0 33.75 0H6.25C2.79822 0 0 2.79822 0 6.25V33.75C0 37.2018 2.79822 40 6.25 40H33.75C37.2018 40 40 37.2018 40 33.75V6.25Z" fill="#7289DA"/>
<path d="M18.19 19.64C17.62 19.64 17.17 20.14 17.17 20.75C17.17 21.36 17.63 21.86 18.19 21.86C18.76 21.86 19.21 21.36 19.21 20.75C19.22 20.14 18.76 19.64 18.19 19.64ZM21.84 19.64C21.27 19.64 20.82 20.14 20.82 20.75C20.82 21.36 21.28 21.86 21.84 21.86C22.41 21.86 22.86 21.36 22.86 20.75C22.86 20.14 22.41 19.64 21.84 19.64Z" fill="white"/>
<path d="M26.7 11.25H13.3C12.17 11.25 11.25 12.17 11.25 13.31V26.83C11.25 27.97 12.17 28.89 13.3 28.89H24.64L24.11 27.04L25.39 28.23L26.6 29.35L28.75 31.25V13.31C28.75 12.17 27.83 11.25 26.7 11.25ZM22.84 24.31C22.84 24.31 22.48 23.88 22.18 23.5C23.49 23.13 23.99 22.31 23.99 22.31C23.58 22.58 23.19 22.77 22.84 22.9C22.34 23.11 21.86 23.25 21.39 23.33C20.43 23.51 19.55 23.46 18.8 23.32C18.23 23.21 17.74 23.05 17.33 22.89C17.1 22.8 16.85 22.69 16.6 22.55C16.57 22.53 16.54 22.52 16.51 22.5C16.49 22.49 16.48 22.48 16.47 22.47C16.29 22.37 16.19 22.3 16.19 22.3C16.19 22.3 16.67 23.1 17.94 23.48C17.64 23.86 17.27 24.31 17.27 24.31C15.06 24.24 14.22 22.79 14.22 22.79C14.22 19.57 15.66 16.96 15.66 16.96C17.1 15.88 18.47 15.91 18.47 15.91L18.57 16.03C16.77 16.55 15.94 17.34 15.94 17.34C15.94 17.34 16.16 17.22 16.53 17.05C17.6 16.58 18.45 16.45 18.8 16.42C18.86 16.41 18.91 16.4 18.97 16.4C19.58 16.32 20.27 16.3 20.99 16.38C21.94 16.49 22.96 16.77 24 17.34C24 17.34 23.21 16.59 21.51 16.07L21.65 15.91C21.65 15.91 23.02 15.88 24.46 16.96C24.46 16.96 25.9 19.57 25.9 22.79C25.9 22.79 25.05 24.24 22.84 24.31Z" fill="white"/>
</svg>
