<svg width="35" height="35" viewBox="0 0 35 35" fill="none" xmlns="http://www.w3.org/2000/svg">
<path fill-rule="evenodd" clip-rule="evenodd" d="M3.50004 7C3.19062 7 2.89388 7.12292 2.67508 7.34171C2.45629 7.5605 2.33337 7.85725 2.33337 8.16667C2.33337 8.47609 2.45629 8.77283 2.67508 8.99162C2.89388 9.21042 3.19062 9.33333 3.50004 9.33333H31.5C31.8095 9.33333 32.1062 9.21042 32.325 8.99162C32.5438 8.77283 32.6667 8.47609 32.6667 8.16667C32.6667 7.85725 32.5438 7.5605 32.325 7.34171C32.1062 7.12292 31.8095 7 31.5 7H3.50004ZM2.33337 17.5C2.33337 17.1906 2.45629 16.8938 2.67508 16.675C2.89388 16.4562 3.19062 16.3333 3.50004 16.3333H31.5C31.8095 16.3333 32.1062 16.4562 32.325 16.675C32.5438 16.8938 32.6667 17.1906 32.6667 17.5C32.6667 17.8094 32.5438 18.1062 32.325 18.325C32.1062 18.5437 31.8095 18.6667 31.5 18.6667H3.50004C3.19062 18.6667 2.89388 18.5437 2.67508 18.325C2.45629 18.1062 2.33337 17.8094 2.33337 17.5ZM2.33337 26.8333C2.33337 26.5239 2.45629 26.2272 2.67508 26.0084C2.89388 25.7896 3.19062 25.6667 3.50004 25.6667H31.5C31.8095 25.6667 32.1062 25.7896 32.325 26.0084C32.5438 26.2272 32.6667 26.5239 32.6667 26.8333C32.6667 27.1428 32.5438 27.4395 32.325 27.6583C32.1062 27.8771 31.8095 28 31.5 28H3.50004C3.19062 28 2.89388 27.8771 2.67508 27.6583C2.45629 27.4395 2.33337 27.1428 2.33337 26.8333Z" fill="white"/>
</svg>
