<svg width="203" height="202" viewBox="0 0 203 202" fill="none" xmlns="http://www.w3.org/2000/svg">
<rect x="1" y="0.5" width="201" height="201" rx="4.5" fill="black"/>
<path d="M175.764 110.975C175.754 110.951 175.745 110.927 175.735 110.902L157.159 64.3072C157.144 64.2725 157.126 64.2403 157.112 64.2057C154.156 56.5654 148.616 50.2021 141.457 46.221C134.297 42.2399 125.969 40.8925 117.919 42.4129L117.905 42.4154L67.5113 52.1607C59.419 53.684 52.1253 58.0178 46.9181 64.3967C41.7109 70.7757 38.9252 78.7895 39.053 87.0229C39.0537 87.0659 39.0549 87.1088 39.0568 87.1517L38.8586 136.949L38.8593 137.031C38.92 141.496 40.4025 145.826 43.0915 149.391C45.7806 152.957 49.5362 155.572 53.8129 156.858C58.0897 158.143 62.6649 158.032 66.8741 156.54C71.0834 155.049 74.7075 152.254 77.2202 148.562C77.2873 148.463 77.3505 148.363 77.4098 148.26L95.839 118.017L115.795 114.137L144.025 135.574C144.12 135.649 144.218 135.722 144.321 135.792C148.014 138.303 152.411 139.571 156.874 139.413C161.338 139.254 165.634 137.677 169.14 134.91C172.645 132.143 175.178 128.331 176.369 124.027C177.56 119.723 177.348 115.151 175.764 110.975ZM86.3856 88.9472L81.8012 89.8197L82.6737 94.4041C82.9051 95.6199 82.644 96.8779 81.9479 97.9013C81.2518 98.9247 80.1777 99.6296 78.9618 99.861C77.746 100.092 76.488 99.8313 75.4646 99.1352C74.4413 98.4391 73.7363 97.3649 73.5049 96.1491L72.6325 91.5647L68.0481 92.4372C66.8322 92.6686 65.5742 92.4075 64.5509 91.7114C63.5275 91.0153 62.8226 89.9411 62.5912 88.7253C62.3598 87.5094 62.6209 86.2515 63.317 85.2281C64.0131 84.2047 65.0872 83.4998 66.3031 83.2684L70.8875 82.3959L70.015 77.8115C69.7836 76.5957 70.0447 75.3377 70.7408 74.3144C71.4369 73.291 72.511 72.5861 73.7269 72.3547C74.9427 72.1233 76.2007 72.3844 77.2241 73.0805C78.2474 73.7766 78.9523 74.8507 79.1837 76.0666L80.0562 80.651L84.6406 79.7785C85.8565 79.5471 87.1144 79.8081 88.1378 80.5043C89.1612 81.2004 89.8661 82.2745 90.0975 83.4904C90.3289 84.7062 90.0678 85.9642 89.3717 86.9875C88.6756 88.0109 87.6015 88.7158 86.3856 88.9472ZM108.435 80.0004C108.204 78.7845 108.465 77.5266 109.161 76.5032C109.857 75.4798 110.931 74.7749 112.147 74.5435L130.484 71.0536C131.7 70.8222 132.958 71.0832 133.982 71.7794C135.005 72.4755 135.71 73.5496 135.941 74.7655C136.173 75.9813 135.912 77.2393 135.216 78.2626C134.519 79.286 133.445 79.9909 132.229 80.2223L113.892 83.7123C112.676 83.9437 111.418 83.6826 110.395 82.9865C109.371 82.2904 108.666 81.2162 108.435 80.0004ZM160.268 129.333C158.535 129.989 156.67 130.223 154.829 130.017C152.987 129.81 151.221 129.169 149.676 128.145L128.081 111.747L131.006 111.179C136.851 110.063 142.314 107.475 146.881 103.66C151.448 99.8457 154.967 94.9298 157.105 89.3771L167.05 114.32C168.133 117.21 168.027 120.412 166.756 123.225C165.485 126.038 163.153 128.234 160.268 129.332L160.268 129.333Z" fill="#F14545"/>
<rect x="1" y="0.5" width="201" height="201" rx="4.5" stroke="#E5E5E5"/>
</svg>
