<svg width="62" height="62" viewBox="0 0 62 62" fill="none" xmlns="http://www.w3.org/2000/svg">
<rect y="2" width="60" height="60" rx="30" transform="rotate(-1.52352 0 2)" fill="black"/>
<path d="M53.1379 33.5909C53.1348 33.5836 53.1318 33.5764 53.1287 33.5692L47.186 19.7438C47.1814 19.7335 47.1758 19.724 47.1712 19.7137C46.2237 17.446 44.5118 15.5819 42.3328 14.4451C40.1539 13.3083 37.6456 12.9706 35.2436 13.4908L35.2396 13.4916L20.2045 16.8161C17.7898 17.3375 15.637 18.6954 14.1263 20.6499C12.6155 22.6045 11.8441 25.03 11.9481 27.4981C11.9486 27.511 11.9493 27.5238 11.9502 27.5367L12.288 42.4722L12.2889 42.4967C12.3427 43.8354 12.8218 45.122 13.6567 46.1698C14.4915 47.2176 15.6387 47.972 16.9315 48.3234C18.2243 48.6748 19.5955 48.605 20.8459 48.124C22.0964 47.6431 23.1609 46.776 23.885 45.6488C23.9043 45.6187 23.9225 45.5881 23.9395 45.5569L29.225 36.3401L35.1786 35.0172L43.8156 41.221C43.8447 41.2429 43.8749 41.2638 43.9062 41.2839C45.0337 42.0075 46.3626 42.3528 47.6998 42.2697C49.037 42.1866 50.3129 41.6793 51.3422 40.8216C52.3715 39.9639 53.1005 38.8004 53.4234 37.5001C53.7463 36.1998 53.6463 34.8304 53.1379 33.5909ZM26.1582 27.6977L24.7903 27.9959L25.0885 29.3637C25.1676 29.7265 25.0993 30.1059 24.8987 30.4183C24.6982 30.7308 24.3816 30.9507 24.0189 31.0298C23.6561 31.1089 23.2767 31.0407 22.9643 30.8401C22.6518 30.6395 22.4319 30.323 22.3528 29.9602L22.0546 28.5923L20.6867 28.8905C20.3239 28.9696 19.9446 28.9014 19.6321 28.7008C19.3197 28.5002 19.0997 28.1837 19.0206 27.8209C18.9415 27.4581 19.0098 27.0788 19.2104 26.7663C19.411 26.4539 19.7275 26.2339 20.0902 26.1548L21.4581 25.8566L21.1599 24.4887C21.0808 24.1259 21.1491 23.7466 21.3497 23.4341C21.5503 23.1217 21.8668 22.9017 22.2295 22.8226C22.5923 22.7435 22.9717 22.8118 23.2841 23.0124C23.5966 23.213 23.8165 23.5295 23.8956 23.8923L24.1939 25.2601L25.5617 24.9619C25.9245 24.8828 26.3038 24.9511 26.6163 25.1517C26.9288 25.3523 27.1487 25.6688 27.2278 26.0316C27.3069 26.3944 27.2386 26.7737 27.038 27.0861C26.8374 27.3986 26.5209 27.6186 26.1582 27.6977ZM32.6993 24.8387C32.6202 24.4759 32.6885 24.0966 32.8891 23.7841C33.0897 23.4717 33.4062 23.2517 33.7689 23.1726L39.2404 21.9797C39.6032 21.9006 39.9825 21.9689 40.295 22.1695C40.6074 22.3701 40.8274 22.6866 40.9065 23.0494C40.9856 23.4121 40.9173 23.7915 40.7167 24.1039C40.5161 24.4164 40.1996 24.6364 39.8369 24.7155L34.3654 25.9083C34.0026 25.9874 33.6233 25.9192 33.3108 25.7186C32.9983 25.518 32.7784 25.2015 32.6993 24.8387ZM48.6371 39.2197C48.1226 39.4303 47.5653 39.5155 47.0114 39.4683C46.4574 39.4211 45.9226 39.2428 45.4512 38.9482L38.8442 34.2026L39.7169 34.0088C41.4608 33.6275 43.0787 32.8079 44.4177 31.6275C45.7568 30.4471 46.7729 28.9448 47.37 27.2625L50.5512 34.6633C50.899 35.5216 50.8929 36.4826 50.5342 37.3364C50.1755 38.1901 49.4934 38.8672 48.6371 39.2195L48.6371 39.2197Z" fill="#F14545"/>
<rect x="0.513117" y="2.48653" width="59" height="59" rx="29.5" transform="rotate(-1.52352 0.513117 2.48653)" stroke="#E5E5E5" stroke-opacity="0.8"/>
</svg>
